<mxfile host="Electron" modified="2024-05-17T14:57:19.205Z" agent="Mozilla/5.0 (Windows NT 10.0; Win64; x64) AppleWebKit/537.36 (KHTML, like Gecko) draw.io/24.0.4 Chrome/120.0.6099.109 Electron/28.1.0 Safari/537.36" etag="haWHSm9-NakC8oHCmA25" version="24.0.4" type="device">
  <diagram id="23iRSUPoRavnBvh4doch" name="Page-1">
    <mxGraphModel dx="1195" dy="697" grid="1" gridSize="10" guides="1" tooltips="1" connect="1" arrows="1" fold="1" page="1" pageScale="1" pageWidth="827" pageHeight="1169" math="0" shadow="0">
      <root>
        <mxCell id="0" />
        <mxCell id="1" parent="0" />
        <mxCell id="mX70TV-4wipKL0DBgX2i-2" value="&lt;h2&gt;Persistent&lt;/h2&gt;" style="shape=ext;double=1;rounded=1;whiteSpace=wrap;html=1;fillColor=#ffe6cc;strokeColor=#d79b00;" vertex="1" parent="1">
          <mxGeometry x="400" y="360" width="160" height="40" as="geometry" />
        </mxCell>
        <mxCell id="mX70TV-4wipKL0DBgX2i-3" value="&lt;h2&gt;Transient&lt;/h2&gt;" style="shape=ext;double=1;rounded=1;whiteSpace=wrap;html=1;fillColor=#ffe6cc;strokeColor=#d79b00;" vertex="1" parent="1">
          <mxGeometry x="120" y="360" width="160" height="40" as="geometry" />
        </mxCell>
        <mxCell id="mX70TV-4wipKL0DBgX2i-4" value="&lt;h2&gt;Detach&lt;/h2&gt;" style="shape=ext;double=1;rounded=1;whiteSpace=wrap;html=1;fillColor=#ffe6cc;strokeColor=#d79b00;" vertex="1" parent="1">
          <mxGeometry x="400" y="240" width="160" height="40" as="geometry" />
        </mxCell>
        <mxCell id="mX70TV-4wipKL0DBgX2i-5" value="&lt;h2&gt;Removed&lt;span style=&quot;white-space: pre;&quot;&gt;&#x9;&lt;/span&gt;&lt;/h2&gt;" style="shape=ext;double=1;rounded=1;whiteSpace=wrap;html=1;fillColor=#ffe6cc;strokeColor=#d79b00;" vertex="1" parent="1">
          <mxGeometry x="400" y="480" width="160" height="40" as="geometry" />
        </mxCell>
        <mxCell id="mX70TV-4wipKL0DBgX2i-6" value="&lt;h2&gt;DB&lt;/h2&gt;" style="shape=cylinder3;whiteSpace=wrap;html=1;boundedLbl=1;backgroundOutline=1;size=15;" vertex="1" parent="1">
          <mxGeometry x="680" y="320" width="80" height="120" as="geometry" />
        </mxCell>
        <mxCell id="mX70TV-4wipKL0DBgX2i-7" value="&lt;h1&gt;Lifecycle Entity&lt;/h1&gt;" style="text;html=1;align=center;verticalAlign=middle;resizable=0;points=[];autosize=1;strokeColor=none;fillColor=none;" vertex="1" parent="1">
          <mxGeometry x="314" y="30" width="200" height="70" as="geometry" />
        </mxCell>
        <mxCell id="mX70TV-4wipKL0DBgX2i-9" value="" style="endArrow=classic;html=1;rounded=0;exitX=0.25;exitY=0;exitDx=0;exitDy=0;entryX=0.25;entryY=1;entryDx=0;entryDy=0;" edge="1" parent="1" source="mX70TV-4wipKL0DBgX2i-2" target="mX70TV-4wipKL0DBgX2i-4">
          <mxGeometry width="50" height="50" relative="1" as="geometry">
            <mxPoint x="390" y="350" as="sourcePoint" />
            <mxPoint x="440" y="300" as="targetPoint" />
          </mxGeometry>
        </mxCell>
        <mxCell id="mX70TV-4wipKL0DBgX2i-10" value="" style="endArrow=classic;html=1;rounded=0;entryX=0.75;entryY=0;entryDx=0;entryDy=0;exitX=0.75;exitY=1;exitDx=0;exitDy=0;" edge="1" parent="1" source="mX70TV-4wipKL0DBgX2i-4" target="mX70TV-4wipKL0DBgX2i-2">
          <mxGeometry width="50" height="50" relative="1" as="geometry">
            <mxPoint x="440" y="300" as="sourcePoint" />
            <mxPoint x="440" y="300" as="targetPoint" />
          </mxGeometry>
        </mxCell>
        <mxCell id="mX70TV-4wipKL0DBgX2i-11" value="" style="endArrow=classic;html=1;rounded=0;entryX=0.25;entryY=0;entryDx=0;entryDy=0;exitX=0.25;exitY=1;exitDx=0;exitDy=0;" edge="1" parent="1" source="mX70TV-4wipKL0DBgX2i-2" target="mX70TV-4wipKL0DBgX2i-5">
          <mxGeometry width="50" height="50" relative="1" as="geometry">
            <mxPoint x="430" y="440" as="sourcePoint" />
            <mxPoint x="440" y="300" as="targetPoint" />
          </mxGeometry>
        </mxCell>
        <mxCell id="mX70TV-4wipKL0DBgX2i-14" value="" style="endArrow=classic;html=1;rounded=0;exitX=0;exitY=0;exitDx=0;exitDy=37.5;exitPerimeter=0;entryX=1;entryY=0.25;entryDx=0;entryDy=0;edgeStyle=orthogonalEdgeStyle;" edge="1" parent="1" source="mX70TV-4wipKL0DBgX2i-6" target="mX70TV-4wipKL0DBgX2i-2">
          <mxGeometry width="50" height="50" relative="1" as="geometry">
            <mxPoint x="390" y="350" as="sourcePoint" />
            <mxPoint x="440" y="300" as="targetPoint" />
          </mxGeometry>
        </mxCell>
        <mxCell id="mX70TV-4wipKL0DBgX2i-16" value="" style="endArrow=classic;html=1;rounded=0;exitX=1;exitY=0.25;exitDx=0;exitDy=0;entryX=0;entryY=0.25;entryDx=0;entryDy=0;" edge="1" parent="1" source="mX70TV-4wipKL0DBgX2i-3" target="mX70TV-4wipKL0DBgX2i-2">
          <mxGeometry width="50" height="50" relative="1" as="geometry">
            <mxPoint x="270" y="460" as="sourcePoint" />
            <mxPoint x="320" y="410" as="targetPoint" />
          </mxGeometry>
        </mxCell>
        <mxCell id="mX70TV-4wipKL0DBgX2i-19" value="persist()&lt;div&gt;&amp;nbsp;merge()*&lt;/div&gt;" style="text;html=1;align=center;verticalAlign=middle;resizable=0;points=[];autosize=1;strokeColor=none;fillColor=none;" vertex="1" parent="1">
          <mxGeometry x="290" y="330" width="70" height="40" as="geometry" />
        </mxCell>
        <mxCell id="mX70TV-4wipKL0DBgX2i-21" value="new" style="rounded=1;whiteSpace=wrap;html=1;" vertex="1" parent="1">
          <mxGeometry x="40" y="360" width="40" height="40" as="geometry" />
        </mxCell>
        <mxCell id="mX70TV-4wipKL0DBgX2i-22" value="" style="endArrow=classic;html=1;rounded=0;exitX=1;exitY=0.5;exitDx=0;exitDy=0;entryX=0;entryY=0.5;entryDx=0;entryDy=0;" edge="1" parent="1" source="mX70TV-4wipKL0DBgX2i-21" target="mX70TV-4wipKL0DBgX2i-3">
          <mxGeometry width="50" height="50" relative="1" as="geometry">
            <mxPoint x="250" y="390" as="sourcePoint" />
            <mxPoint x="100" y="340" as="targetPoint" />
          </mxGeometry>
        </mxCell>
        <mxCell id="mX70TV-4wipKL0DBgX2i-23" value="" style="endArrow=classic;html=1;rounded=0;exitX=0;exitY=0.75;exitDx=0;exitDy=0;entryX=0.062;entryY=0.975;entryDx=0;entryDy=0;entryPerimeter=0;" edge="1" parent="1" source="mX70TV-4wipKL0DBgX2i-2" target="mX70TV-4wipKL0DBgX2i-2">
          <mxGeometry width="50" height="50" relative="1" as="geometry">
            <mxPoint x="390" y="350" as="sourcePoint" />
            <mxPoint x="360" y="420" as="targetPoint" />
            <Array as="points">
              <mxPoint x="340" y="390" />
              <mxPoint x="340" y="420" />
              <mxPoint x="370" y="420" />
              <mxPoint x="410" y="420" />
            </Array>
          </mxGeometry>
        </mxCell>
        <mxCell id="mX70TV-4wipKL0DBgX2i-24" value="refresh()" style="text;html=1;align=center;verticalAlign=middle;resizable=0;points=[];autosize=1;strokeColor=none;fillColor=none;" vertex="1" parent="1">
          <mxGeometry x="340" y="390" width="70" height="30" as="geometry" />
        </mxCell>
        <mxCell id="mX70TV-4wipKL0DBgX2i-25" value="detach()&lt;div&gt;evict()&lt;/div&gt;&lt;div&gt;clear()&lt;/div&gt;&lt;div&gt;flush()&lt;/div&gt;&lt;div&gt;close()&lt;/div&gt;" style="text;html=1;align=center;verticalAlign=middle;resizable=0;points=[];autosize=1;strokeColor=none;fillColor=none;" vertex="1" parent="1">
          <mxGeometry x="379" y="275" width="70" height="90" as="geometry" />
        </mxCell>
        <mxCell id="mX70TV-4wipKL0DBgX2i-26" value="persist()&lt;div&gt;&amp;nbsp;merge()*&lt;/div&gt;" style="text;html=1;align=center;verticalAlign=middle;resizable=0;points=[];autosize=1;strokeColor=none;fillColor=none;" vertex="1" parent="1">
          <mxGeometry x="514" y="300" width="70" height="40" as="geometry" />
        </mxCell>
        <mxCell id="mX70TV-4wipKL0DBgX2i-27" value="persist()" style="text;html=1;align=center;verticalAlign=middle;resizable=0;points=[];autosize=1;strokeColor=none;fillColor=none;" vertex="1" parent="1">
          <mxGeometry x="514" y="430" width="70" height="30" as="geometry" />
        </mxCell>
        <mxCell id="mX70TV-4wipKL0DBgX2i-28" value="" style="endArrow=classic;html=1;rounded=0;exitX=0.75;exitY=0;exitDx=0;exitDy=0;entryX=0.75;entryY=1;entryDx=0;entryDy=0;" edge="1" parent="1" source="mX70TV-4wipKL0DBgX2i-5" target="mX70TV-4wipKL0DBgX2i-2">
          <mxGeometry width="50" height="50" relative="1" as="geometry">
            <mxPoint x="450" y="470" as="sourcePoint" />
            <mxPoint x="500" y="420" as="targetPoint" />
          </mxGeometry>
        </mxCell>
        <mxCell id="mX70TV-4wipKL0DBgX2i-29" value="remove()" style="text;html=1;align=center;verticalAlign=middle;resizable=0;points=[];autosize=1;strokeColor=none;fillColor=none;" vertex="1" parent="1">
          <mxGeometry x="370" y="430" width="70" height="30" as="geometry" />
        </mxCell>
        <mxCell id="mX70TV-4wipKL0DBgX2i-30" value="" style="endArrow=classic;html=1;rounded=0;exitX=1;exitY=0.75;exitDx=0;exitDy=0;entryX=0;entryY=0;entryDx=0;entryDy=82.5;entryPerimeter=0;edgeStyle=orthogonalEdgeStyle;" edge="1" parent="1" source="mX70TV-4wipKL0DBgX2i-2" target="mX70TV-4wipKL0DBgX2i-6">
          <mxGeometry width="50" height="50" relative="1" as="geometry">
            <mxPoint x="380" y="420" as="sourcePoint" />
            <mxPoint x="430" y="370" as="targetPoint" />
          </mxGeometry>
        </mxCell>
        <mxCell id="mX70TV-4wipKL0DBgX2i-32" value="find()&lt;div&gt;get()&lt;/div&gt;&lt;div&gt;Query&lt;/div&gt;" style="text;html=1;align=center;verticalAlign=middle;resizable=0;points=[];autosize=1;strokeColor=none;fillColor=none;" vertex="1" parent="1">
          <mxGeometry x="620" y="300" width="60" height="60" as="geometry" />
        </mxCell>
        <mxCell id="mX70TV-4wipKL0DBgX2i-33" value="* - merging returns persistance instance, but origin remains the same" style="text;html=1;align=center;verticalAlign=middle;resizable=0;points=[];autosize=1;strokeColor=none;fillColor=none;" vertex="1" parent="1">
          <mxGeometry x="55" y="570" width="390" height="30" as="geometry" />
        </mxCell>
      </root>
    </mxGraphModel>
  </diagram>
</mxfile>
